# xmcd CD database file
#
# Track frame offsets:
#	150
#	46406
#	82266
#	106269
#	125331
#	146659
#	176808
#	202819
#	229476
#
# Disc length: 3622 seconds
#
# Revision: 0
# Processed by: cddbd v1.5.2PL0 Copyright (c) Steve Scherf et al.
# Submitted via: CDex 1.70beta2
#
DISCID=7f0e2409
DTITLE=Various Artist - Bule Note Best Disc2
DYEAR=2012
DGENRE=Jazz
TTITLE0=The Sudewinder/Lee Morgan
TTITLE1=Maiden Voyage/Herbie Hancock
TTITLE2=What's New/Jackie McLean
TTITLE3=Dear Old Stockholm/Miles Davis
TTITLE4=Blowin' The Blues Away/Horace Silver
TTITLE5=April In Paris/Thad Jones
TTITLE6=Tune Up/Sonny Rollins
TTITLE7=Yesterdays/Paul Chambers
TTITLE8=Cool Struttin'/Sonny Clark
EXTD=YEAR: 2012
EXTT0=
EXTT1=
EXTT2=
EXTT3=
EXTT4=
EXTT5=
EXTT6=
EXTT7=
EXTT8=
PLAYORDER=
